<svg width="32" height="32" viewBox="0 0 32 32" fill="none" xmlns="http://www.w3.org/2000/svg">
<rect width="32" height="32" rx="6" fill="#ECB1E5"/>
<path d="M26.1888 28.0568C26.4464 28.35 26.5921 29.011 25.821 29.011H18.4225C17.9819 29.011 17.7988 28.5703 17.8717 28.2772C18.0192 27.506 18.3123 27.1756 18.3123 24.8249C18.3123 23.3555 15.3131 19.8304 13.3303 18.8762V25.2282C13.3303 27.1738 14.0285 27.9449 14.1742 28.2025C14.3572 28.4957 14.3217 29.011 13.8811 29.011H7.11864C6.678 29.011 6.64068 28.4975 6.82547 28.2025C6.97294 27.9449 7.66944 27.1738 7.66944 25.2282V6.99136C7.66944 5.04579 6.97116 4.3102 6.82547 4.01704C6.64246 3.72387 6.678 3.2086 7.11864 3.2086H10.1658C12.7723 3.2086 17.2836 2.98828 19.3766 2.98828C23.4152 2.98828 26.2066 5.30165 26.2066 8.6793C26.2066 13.3789 22.4256 17.3144 18.0565 18.3432C19.3411 18.5262 22.9764 19.3897 24.1881 23.0605L24.9966 25.2264C25.6948 27.172 25.9329 27.7601 26.1906 28.0533L26.1888 28.0568ZM13.3303 16.8205C14.9453 16.1968 20.5973 14.0931 20.4605 10.6338C20.3236 7.17437 17.9445 6.42635 15.7769 6.42635H13.3285V16.8205H13.3303Z" fill="#53231A"/>
</svg>
