<svg width="759" height="327" viewBox="0 0 759 327" fill="none" xmlns="http://www.w3.org/2000/svg">
<path d="M740.934 263.669H749.291L730.174 308.589V326.765H722.235V308.589L703.014 263.669H711.475L726.205 296.993L740.934 263.669Z" fill="#53231A"/>
<path d="M588.688 303.261H574.795V326.765H566.855V263.669H593.285C604.254 263.669 613.133 272.548 613.133 283.413C613.133 293.232 605.925 301.381 596.628 302.948C597.046 311.723 604.358 318.931 613.133 318.931V326.87C599.971 326.87 588.688 316.319 588.688 303.261ZM593.285 295.217C599.866 295.217 605.089 289.994 605.089 283.413C605.089 276.831 599.866 271.608 593.285 271.608H574.795V295.217H593.285Z" fill="#53231A"/>
<path d="M472.83 271.608H437.312V291.248H463.428V299.187H437.312V318.826H472.83V326.765H429.373V263.669H472.83V271.608Z" fill="#53231A"/>
<path d="M335.353 263.669L314.669 284.353L334.412 326.765H325.637L308.714 290.307L299.939 298.978V326.765H292V263.669H299.939V287.8L324.071 263.669H335.353Z" fill="#53231A"/>
<path d="M175.144 263.669L198.022 326.765H189.56L184.023 311.618H157.594L152.057 326.765H143.596L166.578 263.669H175.144ZM160.519 303.574H181.203L170.861 275.264L160.519 303.574Z" fill="#53231A"/>
<path d="M42.3344 292.397C48.9157 295.008 53.721 301.381 53.721 309.006C53.721 318.826 45.6773 326.765 35.9621 326.765H7.44336V263.669H28.3362C38.1559 263.669 46.0951 271.608 46.0951 281.428C46.0951 285.606 44.6326 289.367 42.3344 292.397ZM15.3826 271.608V291.248H28.3362C33.7684 291.248 38.1559 286.86 38.1559 281.428C38.1559 276.1 33.6639 271.608 28.3362 271.608H15.3826ZM15.3826 318.722H35.9621C41.2898 318.722 45.6773 314.334 45.6773 309.006C45.6773 303.574 41.4987 299.187 35.9621 299.187H15.3826V318.722Z" fill="#53231A"/>
<path d="M143.792 202.533C145.695 204.699 146.771 209.581 141.076 209.581H86.43C83.1754 209.581 81.8237 206.326 82.3618 204.161C83.451 198.465 85.6164 196.024 85.6164 178.662C85.6164 167.809 63.4641 141.772 48.8184 134.725V181.641C48.8184 196.011 53.9759 201.707 55.052 203.61C56.4038 205.775 56.1413 209.581 52.8867 209.581H2.93916C-0.315434 209.581 -0.591025 205.788 0.773805 203.61C1.86304 201.707 7.0074 196.011 7.0074 181.641V46.9429C7.0074 32.5728 1.84992 27.1398 0.773805 24.9744C-0.577902 22.809 -0.315434 19.0033 2.93916 19.0033H25.4457C44.6977 19.0033 78.0179 17.376 93.4773 17.376C123.307 17.376 143.923 34.4626 143.923 59.4101C143.923 94.1214 115.997 123.19 83.7266 130.788C93.2148 132.14 120.065 138.518 129.015 165.631L134.986 181.628C140.144 195.998 141.902 200.342 143.805 202.507L143.792 202.533ZM48.8184 119.541C60.7476 114.935 102.493 99.397 101.483 73.8458C100.472 48.2946 82.8998 42.7697 66.8893 42.7697H48.8053V119.541H48.8184Z" fill="#53231A"/>
<path d="M215.211 84.0123C215.749 80.7577 214.397 78.8548 210.329 79.406L163.413 87.5425C158.807 88.6317 159.069 92.7 160.697 94.8653C162.048 96.7682 165.578 102.464 165.578 110.325V188.435C165.578 196.847 163.413 202.543 162.048 204.432C160.959 206.598 161.235 210.403 164.489 210.403H212.219C215.474 210.403 215.749 206.611 214.66 204.432C213.308 202.529 211.13 196.834 211.13 188.435V108.697C211.13 95.4034 214.66 87.8181 215.198 84.0123H215.211Z" fill="#53231A"/>
<path d="M187.612 71.6773C200.906 71.6773 209.856 66.5198 209.856 53.777C209.856 41.0342 200.906 36.1523 187.612 36.1523C174.318 36.1523 165.105 41.3098 165.105 53.777C165.105 66.2442 174.331 71.6773 187.612 71.6773Z" fill="#53231A"/>
<path d="M495.49 116.43C495.49 97.9917 476.776 73.8447 436.093 73.8447C398.941 73.8447 368.561 95.8132 368.561 141.916C368.561 188.018 398.941 210.262 436.093 210.262C464.033 210.262 495.49 193.451 495.49 163.07C495.49 158.464 490.07 154.934 484.912 158.727C471.618 168.766 422.458 184.724 412.419 148.923L477.314 135.944C491.96 133.228 495.49 125.643 495.49 116.417V116.43ZM446.159 124.698C440.463 125.787 409.4 130.8 409.4 130.8C409.125 128.897 409.125 126.732 409.125 124.829C409.125 105.839 421.435 92.8211 429.177 91.4038C440.24 89.3959 448.023 100.682 452.091 113.7C453.18 117.231 456.999 122.519 446.146 124.685L446.159 124.698Z" fill="#53231A"/>
<path d="M753.086 182.466C749.556 182.191 746.577 177.86 746.577 169.986V124.96C746.577 96.7577 723.257 79.3955 687.457 79.3955C648.939 79.3955 614.766 104.894 628.336 126.049C638.638 142.046 673.729 126.364 673.729 126.364C673.729 126.364 664.412 94.5924 684.202 94.5924C695.593 94.5924 701.013 115.747 701.013 129.304V141.784C680.396 130.668 625.344 144.501 625.344 175.682C625.344 200.091 646.498 210.393 666.302 210.393C686.105 210.393 695.317 197.099 701.013 187.073C701.288 201.443 713.218 210.393 729.215 210.393C749.018 210.393 757.968 196.285 758.231 187.886C758.231 184.094 757.417 183.28 753.073 182.466H753.086ZM701.472 177.414C697.128 179.579 668.743 184.96 668.743 170.039C668.743 152.676 691.184 149.487 700.134 149.487L701.472 177.414Z" fill="#53231A"/>
<path d="M580.607 160.486C601.407 127.664 624.74 58.3465 604.806 20.105C598.979 8.92389 590.62 0 563.087 0C520.554 0 505.449 34.8425 505.449 69.4882C505.449 107.336 517.523 135.696 531.21 160.472C529.032 168.071 513.914 176.221 507.208 181.562C503.31 184.659 502.536 190.276 505.436 194.318L506.131 195.144C515.659 206.47 532.129 211.614 547.772 199.685C551.446 196.877 553.625 193.753 556.145 191.116C566.25 200.512 583.717 205.997 598.992 204.751C609.491 203.885 617.549 195.105 617.431 184.58L617.404 182.703C617.404 177.887 613.651 173.911 608.848 173.635C599.491 173.097 585.226 170.577 580.593 160.486H580.607ZM555.895 131.037C551.512 121.549 522.129 21.1942 573.047 34.0551C599.412 40.7087 564.307 115.158 555.895 131.037Z" fill="#53231A"/>
<path d="M359.124 82.3096H311.394C307.864 82.3096 306.788 86.1022 308.953 88.0051C317.903 96.1416 333.362 110.249 324.412 137.362L310.305 179.672L284.544 104.002C281.565 95.5904 285.082 90.1705 285.895 88.0051C286.709 84.7505 286.433 82.3096 282.916 82.3096H228.126C224.596 82.3096 224.058 85.8398 225.961 88.0051C227.864 90.1705 232.194 95.6035 234.911 104.002C237.076 110.236 264.74 191.338 264.74 191.338C270.436 207.611 279.386 213.307 288.874 213.307H298.362C307.588 213.307 316.801 208.701 322.496 191.338C322.496 191.338 350.16 110.249 352.326 104.002C355.042 95.5904 359.373 90.1705 361.276 88.0051C363.179 85.8398 362.628 82.3096 359.111 82.3096H359.124Z" fill="#53231A"/>
</svg>
